<svg width="218" height="31" viewBox="0 0 218 31" fill="none" xmlns="http://www.w3.org/2000/svg">
<g clip-path="url(#clip0_144_46)">
<path d="M5.48856 6.71191H5.22796C1.80846 6.71191 0 8.47438 0 11.8128V25.9017C0 29.3321 1.71106 31.0026 5.22796 31.0026H5.48856C8.95807 31.0026 10.7165 29.2861 10.7165 25.9017V18.9249H5.09634V20.4684H9.14761V25.2962C9.14761 28.2886 8.08675 29.4537 5.35958 29.4537C2.63241 29.4537 1.57155 28.2886 1.57155 25.2962V12.4156C1.57155 9.4232 2.63504 8.25813 5.35958 8.25813C8.08412 8.25813 9.14761 9.4232 9.14761 12.4156V14.9647H10.7165V11.8101C10.7165 8.47438 8.90806 6.71191 5.48856 6.71191Z" fill="#F5F3EF"/>
<path d="M21.2989 19.46H27.7009V17.9165H21.2989V8.52571H28.7144V6.97949H19.73V30.7296H28.8118V29.1861H21.2989V19.46Z" fill="#F5F3EF"/>
<path d="M46.5462 26.6559L38.7306 7.06329L38.699 6.97949H37.1064V30.7296H38.6754V11.0505L46.5568 30.6458L46.5884 30.7296H48.1152V6.97949H46.5462V26.6559Z" fill="#F5F3EF"/>
<path d="M58.8948 19.46H65.2969V17.9165H58.8948V8.52571H66.3103V6.97949H57.3259V30.7296H66.4077V29.1861H58.8948V19.46Z" fill="#F5F3EF"/>
<path d="M85.3188 15.3352V12.0806C85.3188 8.69623 83.5604 6.98242 80.0909 6.98242H74.6997V30.7325H76.2686V20.4361H80.4568L84.408 30.6487L84.4422 30.7352H86.1638L82.0968 20.1955C84.2343 19.6198 85.3162 17.987 85.3162 15.3379L85.3188 15.3352ZM79.9619 18.8899H76.2713V8.52593H79.9619C82.6891 8.52593 83.7499 9.691 83.7499 12.6834V14.7297C83.7499 17.7221 82.6864 18.8872 79.9619 18.8872V18.8899Z" fill="#F5F3EF"/>
<path d="M99.8603 6.97949H98.2782L92.9265 30.7296H94.5033L95.8748 24.4907H102.264L103.635 30.7296H105.278L99.884 7.08492L99.8603 6.97949ZM96.2302 22.9444L99.0705 10.1692L101.911 22.9444H96.2302Z" fill="#F5F3EF"/>
<path d="M109.816 8.52571H114.225V30.7296H115.794V8.52571H120.204V6.97949H109.816V8.52571Z" fill="#F5F3EF"/>
<path d="M129.48 6.97949H127.911V30.7296H129.48V6.97949Z" fill="#F5F3EF"/>
<path d="M144.179 6.71191H143.919C140.449 6.71191 138.691 8.42843 138.691 11.8101V25.899C138.691 29.2834 140.449 30.9999 143.919 30.9999H144.179C147.649 30.9999 149.407 29.2834 149.407 25.899V11.8101C149.407 8.42573 147.649 6.71191 144.179 6.71191ZM147.836 25.2962C147.836 28.2886 146.772 29.4537 144.048 29.4537C141.323 29.4537 140.26 28.2886 140.26 25.2962V12.4156C140.26 9.4232 141.321 8.25813 144.048 8.25813C146.775 8.25813 147.836 9.4232 147.836 12.4156V25.2962Z" fill="#F5F3EF"/>
<path d="M167.924 26.6559L160.111 7.06329L160.076 6.97949H158.484V30.7296H160.055V11.0505L167.934 30.6458L167.968 30.7296H169.495V6.97949H167.924V26.6559Z" fill="#F5F3EF"/>
<path d="M184.232 6.97949H182.65L177.298 30.7296H178.875L180.246 24.4907H186.635L188.006 30.7296H189.649L184.255 7.08492L184.232 6.97949ZM180.602 22.9444L183.442 10.1692L186.282 22.9444H180.602Z" fill="#F5F3EF"/>
<path d="M199.023 6.97949H197.451V30.7296H206.044V29.1861H199.023V6.97949Z" fill="#F5F3EF"/>
<path d="M212.833 5.30633V0H211.082V5.30633H205.915V7.10394H211.082V12.4103H212.833V7.10394H218V5.30633H212.833ZM211.235 5.46311H211.195V5.42527H211.235V5.46311Z" fill="#F5F3EF"/>
</g>
<defs>
<clipPath id="clip0_144_46">
<rect width="218" height="31" fill="white"/>
</clipPath>
</defs>
</svg>
