<svg width="35" height="40" viewBox="0 0 35 40" fill="none" xmlns="http://www.w3.org/2000/svg">
<path d="M8.10799 8.65918H7.76272C3.23238 8.65918 0.836426 10.9331 0.836426 15.2402V33.4174C0.836426 37.8431 3.10334 39.9984 7.76272 39.9984H8.10799C12.7046 39.9984 15.0343 37.7838 15.0343 33.4174V24.416H7.58834V26.4074H12.9557V32.6361C12.9557 36.4969 11.5502 38 7.9371 38C4.32398 38 2.9185 36.4969 2.9185 32.6361V16.0179C2.9185 12.1572 4.32747 10.6541 7.9371 10.6541C11.5467 10.6541 12.9557 12.1572 12.9557 16.0179V19.3067H15.0343V15.2367C15.0343 10.9331 12.6383 8.65918 8.10799 8.65918Z" fill="#F5F3EF"/>
<path d="M28.1538 6.84608V0H25.8346V6.84608H18.9885V9.1653H25.8346V16.0114H28.1538V9.1653H34.9999V6.84608H28.1538ZM26.0369 7.04836H25.9846V6.99953H26.0369V7.04836Z" fill="#F5F3EF"/>
</svg>
