<svg width="174" height="174" viewBox="0 0 174 174" fill="none" xmlns="http://www.w3.org/2000/svg">
<path d="M43.5 23C42.9037 22.9916 42.3117 23.1017 41.7583 23.3241C41.205 23.5465 40.7013 23.8766 40.2766 24.2953C39.852 24.714 39.5148 25.2129 39.2846 25.7631C39.0544 26.3132 38.9359 26.9036 38.9359 27.5C38.9359 28.0964 39.0544 28.6868 39.2846 29.2369C39.5148 29.7871 39.852 30.286 40.2766 30.7047C40.7013 31.1234 41.205 31.4535 41.7583 31.6759C42.3117 31.8983 42.9037 32.0084 43.5 32H45V38C45 55.7897 56.3173 70.6549 72 76.7539V77.2461C56.3173 83.3452 45 98.2103 45 116V122H43.5C42.9037 121.992 42.3117 122.102 41.7583 122.324C41.205 122.546 40.7013 122.877 40.2766 123.295C39.852 123.714 39.5148 124.213 39.2846 124.763C39.0544 125.313 38.9359 125.904 38.9359 126.5C38.9359 127.096 39.0544 127.687 39.2846 128.237C39.5148 128.787 39.852 129.286 40.2766 129.705C40.7013 130.123 41.205 130.454 41.7583 130.676C42.3117 130.898 42.9037 131.008 43.5 131H49.5H124.5H130.5C131.096 131.008 131.688 130.898 132.242 130.676C132.795 130.454 133.299 130.123 133.723 129.705C134.148 129.286 134.485 128.787 134.715 128.237C134.946 127.687 135.064 127.096 135.064 126.5C135.064 125.904 134.946 125.313 134.715 124.763C134.485 124.213 134.148 123.714 133.723 123.295C133.299 122.877 132.795 122.546 132.242 122.324C131.688 122.102 131.096 121.992 130.5 122H129V116C129 98.2103 117.683 83.3452 102 77.2461V76.7539C117.683 70.6549 129 55.7897 129 38V32H130.5C131.096 32.0084 131.688 31.8983 132.242 31.6759C132.795 31.4535 133.299 31.1234 133.723 30.7047C134.148 30.286 134.485 29.7871 134.715 29.2369C134.946 28.6868 135.064 28.0964 135.064 27.5C135.064 26.9036 134.946 26.3132 134.715 25.7631C134.485 25.2129 134.148 24.714 133.723 24.2953C133.299 23.8766 132.795 23.5465 132.242 23.3241C131.688 23.1017 131.096 22.9916 130.5 23H124.5H49.5H43.5ZM54 32H120V38C120 53.0554 109.953 65.6674 96.2402 69.6641C95.3058 69.9366 94.4849 70.5048 93.9007 71.2834C93.3165 72.062 93.0004 73.009 93 73.9824V80.0176C93.0004 80.991 93.3165 81.938 93.9007 82.7166C94.4849 83.4952 95.3058 84.0634 96.2402 84.3359C109.953 88.3326 120 100.945 120 116V122H54V116C54 100.945 64.0472 88.3326 77.7598 84.3359C78.6942 84.0634 79.5151 83.4952 80.0993 82.7166C80.6835 81.938 80.9996 80.991 81 80.0176V73.9824C80.9996 73.009 80.6835 72.062 80.0993 71.2834C79.5151 70.5048 78.6942 69.9366 77.7598 69.6641C64.0472 65.6674 54 53.0554 54 38V32Z" fill="#E4EBF2"/>
<path d="M11.9141 152.625V164H10.9453L4.40625 154.281V164H3.44531V152.625H4.40625L10.9609 162.344V152.625H11.9141ZM14.0859 159.906V159.648C14.0859 159.034 14.1745 158.466 14.3516 157.945C14.5286 157.424 14.7812 156.974 15.1094 156.594C15.4427 156.214 15.8411 155.919 16.3047 155.711C16.7682 155.497 17.2839 155.391 17.8516 155.391C18.4245 155.391 18.9427 155.497 19.4062 155.711C19.8698 155.919 20.2682 156.214 20.6016 156.594C20.9349 156.974 21.1901 157.424 21.3672 157.945C21.5443 158.466 21.6328 159.034 21.6328 159.648V159.906C21.6328 160.521 21.5443 161.089 21.3672 161.609C21.1901 162.125 20.9349 162.573 20.6016 162.953C20.2734 163.333 19.8776 163.63 19.4141 163.844C18.9505 164.052 18.4349 164.156 17.8672 164.156C17.2943 164.156 16.776 164.052 16.3125 163.844C15.849 163.63 15.4505 163.333 15.1172 162.953C14.7839 162.573 14.5286 162.125 14.3516 161.609C14.1745 161.089 14.0859 160.521 14.0859 159.906ZM15.0156 159.648V159.906C15.0156 160.37 15.0781 160.81 15.2031 161.227C15.3281 161.638 15.5104 162.005 15.75 162.328C15.9896 162.646 16.2865 162.896 16.6406 163.078C16.9948 163.26 17.4036 163.352 17.8672 163.352C18.3255 163.352 18.7292 163.26 19.0781 163.078C19.4323 162.896 19.7292 162.646 19.9688 162.328C20.2083 162.005 20.388 161.638 20.5078 161.227C20.6328 160.81 20.6953 160.37 20.6953 159.906V159.648C20.6953 159.19 20.6328 158.755 20.5078 158.344C20.388 157.932 20.2057 157.565 19.9609 157.242C19.7214 156.919 19.4245 156.664 19.0703 156.477C18.7161 156.289 18.3099 156.195 17.8516 156.195C17.3932 156.195 16.987 156.289 16.6328 156.477C16.2839 156.664 15.987 156.919 15.7422 157.242C15.5026 157.565 15.3203 157.932 15.1953 158.344C15.0755 158.755 15.0156 159.19 15.0156 159.648ZM31.25 162.586L34.8359 152.625H35.8828L31.6484 164H30.875L31.25 162.586ZM27.5469 152.625L31.1172 162.586L31.5078 164H30.7266L26.5 152.625H27.5469ZM40.2734 164.156C39.7214 164.156 39.2135 164.055 38.75 163.852C38.2917 163.648 37.8906 163.362 37.5469 162.992C37.2083 162.622 36.9453 162.185 36.7578 161.68C36.5755 161.169 36.4844 160.612 36.4844 160.008V159.672C36.4844 159.021 36.5807 158.432 36.7734 157.906C36.9661 157.38 37.2318 156.93 37.5703 156.555C37.9089 156.18 38.2943 155.893 38.7266 155.695C39.1641 155.492 39.6224 155.391 40.1016 155.391C40.638 155.391 41.1146 155.487 41.5312 155.68C41.9479 155.867 42.2969 156.135 42.5781 156.484C42.8646 156.828 43.0807 157.237 43.2266 157.711C43.3724 158.18 43.4453 158.698 43.4453 159.266V159.836H37.0469V159.039H42.5156V158.93C42.5052 158.456 42.4089 158.013 42.2266 157.602C42.0495 157.185 41.7839 156.846 41.4297 156.586C41.0755 156.326 40.6328 156.195 40.1016 156.195C39.7057 156.195 39.3411 156.279 39.0078 156.445C38.6797 156.612 38.3958 156.852 38.1562 157.164C37.9219 157.471 37.7396 157.839 37.6094 158.266C37.4844 158.688 37.4219 159.156 37.4219 159.672V160.008C37.4219 160.477 37.4896 160.914 37.625 161.32C37.7656 161.721 37.9635 162.076 38.2188 162.383C38.4792 162.69 38.7865 162.93 39.1406 163.102C39.4948 163.273 39.8854 163.359 40.3125 163.359C40.8125 163.359 41.2552 163.268 41.6406 163.086C42.026 162.898 42.3724 162.604 42.6797 162.203L43.2656 162.656C43.0833 162.927 42.8542 163.177 42.5781 163.406C42.3073 163.635 41.9818 163.818 41.6016 163.953C41.2214 164.089 40.7786 164.156 40.2734 164.156ZM46.2188 152V164H45.2891V152H46.2188ZM46.0078 159.25L45.5938 159.016C45.625 158.516 45.7266 158.047 45.8984 157.609C46.0703 157.172 46.3021 156.786 46.5938 156.453C46.8906 156.12 47.237 155.859 47.6328 155.672C48.0339 155.484 48.4766 155.391 48.9609 155.391C49.3828 155.391 49.7604 155.448 50.0938 155.562C50.4271 155.677 50.7109 155.859 50.9453 156.109C51.1797 156.359 51.3568 156.68 51.4766 157.07C51.6016 157.461 51.6641 157.938 51.6641 158.5V164H50.7266V158.492C50.7266 157.909 50.6458 157.453 50.4844 157.125C50.3229 156.792 50.0938 156.555 49.7969 156.414C49.5 156.273 49.1484 156.203 48.7422 156.203C48.2943 156.203 47.901 156.302 47.5625 156.5C47.2292 156.693 46.9479 156.945 46.7188 157.258C46.4948 157.565 46.3229 157.896 46.2031 158.25C46.0833 158.599 46.0182 158.932 46.0078 159.25ZM55.1094 155.547V164H54.1797V155.547H55.1094ZM54.0156 153.102C54.0156 152.924 54.0703 152.776 54.1797 152.656C54.2943 152.531 54.4505 152.469 54.6484 152.469C54.8464 152.469 55.0026 152.531 55.1172 152.656C55.237 152.776 55.2969 152.924 55.2969 153.102C55.2969 153.273 55.237 153.422 55.1172 153.547C55.0026 153.667 54.8464 153.727 54.6484 153.727C54.4505 153.727 54.2943 153.667 54.1797 153.547C54.0703 153.422 54.0156 153.273 54.0156 153.102ZM60.7812 163.352C61.1771 163.352 61.5469 163.279 61.8906 163.133C62.2396 162.982 62.526 162.76 62.75 162.469C62.9792 162.172 63.1094 161.81 63.1406 161.383H64.0312C64.0052 161.919 63.8411 162.398 63.5391 162.82C63.2422 163.237 62.8516 163.565 62.3672 163.805C61.888 164.039 61.3594 164.156 60.7812 164.156C60.1927 164.156 59.6719 164.049 59.2188 163.836C58.7708 163.622 58.3958 163.326 58.0938 162.945C57.7917 162.56 57.5625 162.112 57.4062 161.602C57.2552 161.086 57.1797 160.531 57.1797 159.938V159.609C57.1797 159.016 57.2552 158.464 57.4062 157.953C57.5625 157.438 57.7917 156.99 58.0938 156.609C58.3958 156.224 58.7708 155.924 59.2188 155.711C59.6667 155.497 60.1849 155.391 60.7734 155.391C61.3776 155.391 61.9193 155.513 62.3984 155.758C62.8828 156.003 63.2682 156.349 63.5547 156.797C63.8464 157.245 64.0052 157.776 64.0312 158.391H63.1406C63.1146 157.938 62.9948 157.547 62.7812 157.219C62.5677 156.891 62.2865 156.638 61.9375 156.461C61.5885 156.284 61.2005 156.195 60.7734 156.195C60.2943 156.195 59.8854 156.289 59.5469 156.477C59.2083 156.659 58.9323 156.911 58.7188 157.234C58.5104 157.552 58.3568 157.917 58.2578 158.328C58.1589 158.734 58.1094 159.161 58.1094 159.609V159.938C58.1094 160.391 58.1562 160.823 58.25 161.234C58.349 161.641 58.5026 162.003 58.7109 162.32C58.9245 162.638 59.2005 162.891 59.5391 163.078C59.8828 163.26 60.2969 163.352 60.7812 163.352ZM66.9531 152V164H66.0234V152H66.9531ZM72.7734 164.156C72.2214 164.156 71.7135 164.055 71.25 163.852C70.7917 163.648 70.3906 163.362 70.0469 162.992C69.7083 162.622 69.4453 162.185 69.2578 161.68C69.0755 161.169 68.9844 160.612 68.9844 160.008V159.672C68.9844 159.021 69.0807 158.432 69.2734 157.906C69.4661 157.38 69.7318 156.93 70.0703 156.555C70.4089 156.18 70.7943 155.893 71.2266 155.695C71.6641 155.492 72.1224 155.391 72.6016 155.391C73.138 155.391 73.6146 155.487 74.0312 155.68C74.4479 155.867 74.7969 156.135 75.0781 156.484C75.3646 156.828 75.5807 157.237 75.7266 157.711C75.8724 158.18 75.9453 158.698 75.9453 159.266V159.836H69.5469V159.039H75.0156V158.93C75.0052 158.456 74.9089 158.013 74.7266 157.602C74.5495 157.185 74.2839 156.846 73.9297 156.586C73.5755 156.326 73.1328 156.195 72.6016 156.195C72.2057 156.195 71.8411 156.279 71.5078 156.445C71.1797 156.612 70.8958 156.852 70.6562 157.164C70.4219 157.471 70.2396 157.839 70.1094 158.266C69.9844 158.688 69.9219 159.156 69.9219 159.672V160.008C69.9219 160.477 69.9896 160.914 70.125 161.32C70.2656 161.721 70.4635 162.076 70.7188 162.383C70.9792 162.69 71.2865 162.93 71.6406 163.102C71.9948 163.273 72.3854 163.359 72.8125 163.359C73.3125 163.359 73.7552 163.268 74.1406 163.086C74.526 162.898 74.8724 162.604 75.1797 162.203L75.7656 162.656C75.5833 162.927 75.3542 163.177 75.0781 163.406C74.8073 163.635 74.4818 163.818 74.1016 163.953C73.7214 164.089 73.2786 164.156 72.7734 164.156ZM84.8906 155.547V156.312H80.6562V155.547H84.8906ZM82.2109 153.375H83.1406V161.945C83.1406 162.336 83.1927 162.63 83.2969 162.828C83.401 163.026 83.5365 163.159 83.7031 163.227C83.8698 163.294 84.0495 163.328 84.2422 163.328C84.3828 163.328 84.5182 163.32 84.6484 163.305C84.7786 163.284 84.8958 163.263 85 163.242L85.0391 164.031C84.9245 164.068 84.776 164.096 84.5938 164.117C84.4115 164.143 84.2292 164.156 84.0469 164.156C83.6875 164.156 83.3698 164.091 83.0938 163.961C82.8177 163.826 82.6016 163.596 82.4453 163.273C82.2891 162.945 82.2109 162.5 82.2109 161.938V153.375ZM86.1797 159.906V159.648C86.1797 159.034 86.2682 158.466 86.4453 157.945C86.6224 157.424 86.875 156.974 87.2031 156.594C87.5365 156.214 87.9349 155.919 88.3984 155.711C88.862 155.497 89.3776 155.391 89.9453 155.391C90.5182 155.391 91.0365 155.497 91.5 155.711C91.9635 155.919 92.362 156.214 92.6953 156.594C93.0286 156.974 93.2839 157.424 93.4609 157.945C93.638 158.466 93.7266 159.034 93.7266 159.648V159.906C93.7266 160.521 93.638 161.089 93.4609 161.609C93.2839 162.125 93.0286 162.573 92.6953 162.953C92.3672 163.333 91.9714 163.63 91.5078 163.844C91.0443 164.052 90.5286 164.156 89.9609 164.156C89.388 164.156 88.8698 164.052 88.4062 163.844C87.9427 163.63 87.5443 163.333 87.2109 162.953C86.8776 162.573 86.6224 162.125 86.4453 161.609C86.2682 161.089 86.1797 160.521 86.1797 159.906ZM87.1094 159.648V159.906C87.1094 160.37 87.1719 160.81 87.2969 161.227C87.4219 161.638 87.6042 162.005 87.8438 162.328C88.0833 162.646 88.3802 162.896 88.7344 163.078C89.0885 163.26 89.4974 163.352 89.9609 163.352C90.4193 163.352 90.8229 163.26 91.1719 163.078C91.526 162.896 91.8229 162.646 92.0625 162.328C92.3021 162.005 92.4818 161.638 92.6016 161.227C92.7266 160.81 92.7891 160.37 92.7891 159.906V159.648C92.7891 159.19 92.7266 158.755 92.6016 158.344C92.4818 157.932 92.2995 157.565 92.0547 157.242C91.8151 156.919 91.5182 156.664 91.1641 156.477C90.8099 156.289 90.4036 156.195 89.9453 156.195C89.487 156.195 89.0807 156.289 88.7266 156.477C88.3776 156.664 88.0807 156.919 87.8359 157.242C87.5964 157.565 87.4141 157.932 87.2891 158.344C87.1693 158.755 87.1094 159.19 87.1094 159.648ZM104.633 161.844C104.633 161.615 104.576 161.388 104.461 161.164C104.346 160.94 104.125 160.734 103.797 160.547C103.474 160.359 102.997 160.201 102.367 160.07C101.898 159.966 101.479 159.849 101.109 159.719C100.745 159.589 100.438 159.432 100.188 159.25C99.9375 159.068 99.7474 158.849 99.6172 158.594C99.487 158.339 99.4219 158.036 99.4219 157.688C99.4219 157.375 99.4896 157.081 99.625 156.805C99.7656 156.523 99.9635 156.279 100.219 156.07C100.479 155.857 100.792 155.69 101.156 155.57C101.526 155.451 101.94 155.391 102.398 155.391C103.049 155.391 103.607 155.503 104.07 155.727C104.539 155.945 104.896 156.245 105.141 156.625C105.391 157.005 105.516 157.435 105.516 157.914H104.586C104.586 157.622 104.5 157.346 104.328 157.086C104.161 156.826 103.914 156.612 103.586 156.445C103.263 156.279 102.867 156.195 102.398 156.195C101.914 156.195 101.521 156.268 101.219 156.414C100.917 156.56 100.695 156.745 100.555 156.969C100.419 157.193 100.352 157.424 100.352 157.664C100.352 157.852 100.38 158.023 100.438 158.18C100.5 158.331 100.609 158.471 100.766 158.602C100.927 158.732 101.156 158.854 101.453 158.969C101.75 159.083 102.135 159.195 102.609 159.305C103.292 159.456 103.849 159.641 104.281 159.859C104.719 160.073 105.042 160.339 105.25 160.656C105.458 160.969 105.562 161.349 105.562 161.797C105.562 162.146 105.49 162.466 105.344 162.758C105.198 163.044 104.987 163.292 104.711 163.5C104.44 163.708 104.112 163.87 103.727 163.984C103.346 164.099 102.919 164.156 102.445 164.156C101.732 164.156 101.128 164.039 100.633 163.805C100.143 163.565 99.7708 163.253 99.5156 162.867C99.2656 162.477 99.1406 162.062 99.1406 161.625H100.07C100.102 162.062 100.24 162.409 100.484 162.664C100.729 162.914 101.029 163.091 101.383 163.195C101.742 163.299 102.096 163.352 102.445 163.352C102.924 163.352 103.326 163.281 103.648 163.141C103.971 163 104.216 162.815 104.383 162.586C104.549 162.357 104.633 162.109 104.633 161.844ZM108.609 152V164H107.68V152H108.609ZM108.398 159.25L107.984 159.016C108.016 158.516 108.117 158.047 108.289 157.609C108.461 157.172 108.693 156.786 108.984 156.453C109.281 156.12 109.628 155.859 110.023 155.672C110.424 155.484 110.867 155.391 111.352 155.391C111.773 155.391 112.151 155.448 112.484 155.562C112.818 155.677 113.102 155.859 113.336 156.109C113.57 156.359 113.747 156.68 113.867 157.07C113.992 157.461 114.055 157.938 114.055 158.5V164H113.117V158.492C113.117 157.909 113.036 157.453 112.875 157.125C112.714 156.792 112.484 156.555 112.188 156.414C111.891 156.273 111.539 156.203 111.133 156.203C110.685 156.203 110.292 156.302 109.953 156.5C109.62 156.693 109.339 156.945 109.109 157.258C108.885 157.565 108.714 157.896 108.594 158.25C108.474 158.599 108.409 158.932 108.398 159.25ZM115.945 159.906V159.648C115.945 159.034 116.034 158.466 116.211 157.945C116.388 157.424 116.641 156.974 116.969 156.594C117.302 156.214 117.701 155.919 118.164 155.711C118.628 155.497 119.143 155.391 119.711 155.391C120.284 155.391 120.802 155.497 121.266 155.711C121.729 155.919 122.128 156.214 122.461 156.594C122.794 156.974 123.049 157.424 123.227 157.945C123.404 158.466 123.492 159.034 123.492 159.648V159.906C123.492 160.521 123.404 161.089 123.227 161.609C123.049 162.125 122.794 162.573 122.461 162.953C122.133 163.333 121.737 163.63 121.273 163.844C120.81 164.052 120.294 164.156 119.727 164.156C119.154 164.156 118.635 164.052 118.172 163.844C117.708 163.63 117.31 163.333 116.977 162.953C116.643 162.573 116.388 162.125 116.211 161.609C116.034 161.089 115.945 160.521 115.945 159.906ZM116.875 159.648V159.906C116.875 160.37 116.938 160.81 117.062 161.227C117.188 161.638 117.37 162.005 117.609 162.328C117.849 162.646 118.146 162.896 118.5 163.078C118.854 163.26 119.263 163.352 119.727 163.352C120.185 163.352 120.589 163.26 120.938 163.078C121.292 162.896 121.589 162.646 121.828 162.328C122.068 162.005 122.247 161.638 122.367 161.227C122.492 160.81 122.555 160.37 122.555 159.906V159.648C122.555 159.19 122.492 158.755 122.367 158.344C122.247 157.932 122.065 157.565 121.82 157.242C121.581 156.919 121.284 156.664 120.93 156.477C120.576 156.289 120.169 156.195 119.711 156.195C119.253 156.195 118.846 156.289 118.492 156.477C118.143 156.664 117.846 156.919 117.602 157.242C117.362 157.565 117.18 157.932 117.055 158.344C116.935 158.755 116.875 159.19 116.875 159.648ZM127.773 162.023L129.812 155.547H130.469L130.078 157.289L127.945 164H127.289L127.773 162.023ZM125.656 155.547L127.445 162.062L127.828 164H127.148L124.695 155.547H125.656ZM133.008 162.039L134.75 155.547H135.711L133.258 164H132.586L133.008 162.039ZM130.602 155.547L132.609 161.969L133.117 164H132.461L130.281 157.281L129.914 155.547H130.602ZM142.344 152V164H141.414V152H142.344ZM142.133 159.25L141.719 159.016C141.75 158.516 141.852 158.047 142.023 157.609C142.195 157.172 142.427 156.786 142.719 156.453C143.016 156.12 143.362 155.859 143.758 155.672C144.159 155.484 144.602 155.391 145.086 155.391C145.508 155.391 145.885 155.448 146.219 155.562C146.552 155.677 146.836 155.859 147.07 156.109C147.305 156.359 147.482 156.68 147.602 157.07C147.727 157.461 147.789 157.938 147.789 158.5V164H146.852V158.492C146.852 157.909 146.771 157.453 146.609 157.125C146.448 156.792 146.219 156.555 145.922 156.414C145.625 156.273 145.273 156.203 144.867 156.203C144.419 156.203 144.026 156.302 143.688 156.5C143.354 156.693 143.073 156.945 142.844 157.258C142.62 157.565 142.448 157.896 142.328 158.25C142.208 158.599 142.143 158.932 142.133 159.25ZM153.461 164.156C152.909 164.156 152.401 164.055 151.938 163.852C151.479 163.648 151.078 163.362 150.734 162.992C150.396 162.622 150.133 162.185 149.945 161.68C149.763 161.169 149.672 160.612 149.672 160.008V159.672C149.672 159.021 149.768 158.432 149.961 157.906C150.154 157.38 150.419 156.93 150.758 156.555C151.096 156.18 151.482 155.893 151.914 155.695C152.352 155.492 152.81 155.391 153.289 155.391C153.826 155.391 154.302 155.487 154.719 155.68C155.135 155.867 155.484 156.135 155.766 156.484C156.052 156.828 156.268 157.237 156.414 157.711C156.56 158.18 156.633 158.698 156.633 159.266V159.836H150.234V159.039H155.703V158.93C155.693 158.456 155.596 158.013 155.414 157.602C155.237 157.185 154.971 156.846 154.617 156.586C154.263 156.326 153.82 156.195 153.289 156.195C152.893 156.195 152.529 156.279 152.195 156.445C151.867 156.612 151.583 156.852 151.344 157.164C151.109 157.471 150.927 157.839 150.797 158.266C150.672 158.688 150.609 159.156 150.609 159.672V160.008C150.609 160.477 150.677 160.914 150.812 161.32C150.953 161.721 151.151 162.076 151.406 162.383C151.667 162.69 151.974 162.93 152.328 163.102C152.682 163.273 153.073 163.359 153.5 163.359C154 163.359 154.443 163.268 154.828 163.086C155.214 162.898 155.56 162.604 155.867 162.203L156.453 162.656C156.271 162.927 156.042 163.177 155.766 163.406C155.495 163.635 155.169 163.818 154.789 163.953C154.409 164.089 153.966 164.156 153.461 164.156ZM159.406 156.945V164H158.477V155.547H159.383L159.406 156.945ZM162.398 155.484L162.375 156.344C162.271 156.328 162.169 156.315 162.07 156.305C161.971 156.294 161.865 156.289 161.75 156.289C161.344 156.289 160.987 156.365 160.68 156.516C160.378 156.661 160.122 156.867 159.914 157.133C159.706 157.393 159.547 157.701 159.438 158.055C159.328 158.404 159.266 158.779 159.25 159.18L158.906 159.312C158.906 158.76 158.964 158.247 159.078 157.773C159.193 157.299 159.367 156.885 159.602 156.531C159.841 156.172 160.141 155.893 160.5 155.695C160.865 155.492 161.292 155.391 161.781 155.391C161.901 155.391 162.018 155.401 162.133 155.422C162.253 155.438 162.341 155.458 162.398 155.484ZM166.977 164.156C166.424 164.156 165.917 164.055 165.453 163.852C164.995 163.648 164.594 163.362 164.25 162.992C163.911 162.622 163.648 162.185 163.461 161.68C163.279 161.169 163.188 160.612 163.188 160.008V159.672C163.188 159.021 163.284 158.432 163.477 157.906C163.669 157.38 163.935 156.93 164.273 156.555C164.612 156.18 164.997 155.893 165.43 155.695C165.867 155.492 166.326 155.391 166.805 155.391C167.341 155.391 167.818 155.487 168.234 155.68C168.651 155.867 169 156.135 169.281 156.484C169.568 156.828 169.784 157.237 169.93 157.711C170.076 158.18 170.148 158.698 170.148 159.266V159.836H163.75V159.039H169.219V158.93C169.208 158.456 169.112 158.013 168.93 157.602C168.753 157.185 168.487 156.846 168.133 156.586C167.779 156.326 167.336 156.195 166.805 156.195C166.409 156.195 166.044 156.279 165.711 156.445C165.383 156.612 165.099 156.852 164.859 157.164C164.625 157.471 164.443 157.839 164.312 158.266C164.188 158.688 164.125 159.156 164.125 159.672V160.008C164.125 160.477 164.193 160.914 164.328 161.32C164.469 161.721 164.667 162.076 164.922 162.383C165.182 162.69 165.49 162.93 165.844 163.102C166.198 163.273 166.589 163.359 167.016 163.359C167.516 163.359 167.958 163.268 168.344 163.086C168.729 162.898 169.076 162.604 169.383 162.203L169.969 162.656C169.786 162.927 169.557 163.177 169.281 163.406C169.01 163.635 168.685 163.818 168.305 163.953C167.924 164.089 167.482 164.156 166.977 164.156Z" fill="#C6D0DA"/>
</svg>
