<svg width="159" height="163" viewBox="0 0 159 163" fill="none" xmlns="http://www.w3.org/2000/svg">
<path d="M35.5 18C34.9037 17.9916 34.3117 18.1017 33.7583 18.3241C33.2049 18.5464 32.7013 18.8766 32.2766 19.2953C31.852 19.714 31.5148 20.2129 31.2846 20.7631C31.0544 21.3132 30.9359 21.9036 30.9359 22.5C30.9359 23.0964 31.0544 23.6868 31.2846 24.2369C31.5148 24.7871 31.852 25.286 32.2766 25.7047C32.7013 26.1234 33.2049 26.4535 33.7583 26.6759C34.3117 26.8983 34.9037 27.0084 35.5 27H37V33C37 50.7897 48.3173 65.6548 64 71.7539V72.2461C48.3173 78.3451 37 93.2103 37 111V117H35.5C34.9037 116.992 34.3117 117.102 33.7583 117.324C33.2049 117.546 32.7013 117.877 32.2766 118.295C31.852 118.714 31.5148 119.213 31.2846 119.763C31.0544 120.313 30.9359 120.904 30.9359 121.5C30.9359 122.096 31.0544 122.687 31.2846 123.237C31.5148 123.787 31.852 124.286 32.2766 124.705C32.7013 125.123 33.2049 125.454 33.7583 125.676C34.3117 125.898 34.9037 126.008 35.5 126H41.5H116.5H122.5C123.096 126.008 123.688 125.898 124.242 125.676C124.795 125.454 125.299 125.123 125.723 124.705C126.148 124.286 126.485 123.787 126.715 123.237C126.946 122.687 127.064 122.096 127.064 121.5C127.064 120.904 126.946 120.313 126.715 119.763C126.485 119.213 126.148 118.714 125.723 118.295C125.299 117.877 124.795 117.546 124.242 117.324C123.688 117.102 123.096 116.992 122.5 117H121V111C121 93.2103 109.683 78.3451 94 72.2461V71.7539C109.683 65.6548 121 50.7897 121 33V27H122.5C123.096 27.0084 123.688 26.8983 124.242 26.6759C124.795 26.4535 125.299 26.1234 125.723 25.7047C126.148 25.286 126.485 24.7871 126.715 24.2369C126.946 23.6868 127.064 23.0964 127.064 22.5C127.064 21.9036 126.946 21.3132 126.715 20.7631C126.485 20.2129 126.148 19.714 125.723 19.2953C125.299 18.8766 124.795 18.5464 124.242 18.3241C123.688 18.1017 123.096 17.9916 122.5 18H116.5H41.5H35.5ZM46 27H112V33C112 48.0554 101.953 60.6674 88.2402 64.6641C87.3058 64.9366 86.4849 65.5048 85.9007 66.2834C85.3165 67.062 85.0004 68.009 85 68.9824V75.0176C85.0004 75.991 85.3165 76.938 85.9007 77.7166C86.4849 78.4952 87.3058 79.0634 88.2402 79.3359C101.953 83.3326 112 95.9446 112 111V117H46V111C46 95.9446 56.0471 83.3326 69.7598 79.3359C70.6942 79.0634 71.5151 78.4952 72.0993 77.7166C72.6835 76.938 72.9996 75.991 73 75.0176V68.9824C72.9996 68.009 72.6835 67.062 72.0993 66.2834C71.5151 65.5048 70.6942 64.9366 69.7598 64.6641C56.0471 60.6674 46 48.0554 46 33V27Z" fill="#E4EBF2"/>
<path d="M9.91406 147.625V159H8.94531L2.40625 149.281V159H1.44531V147.625H2.40625L8.96094 157.344V147.625H9.91406ZM12.0859 154.906V154.648C12.0859 154.034 12.1745 153.466 12.3516 152.945C12.5286 152.424 12.7812 151.974 13.1094 151.594C13.4427 151.214 13.8411 150.919 14.3047 150.711C14.7682 150.497 15.2839 150.391 15.8516 150.391C16.4245 150.391 16.9427 150.497 17.4062 150.711C17.8698 150.919 18.2682 151.214 18.6016 151.594C18.9349 151.974 19.1901 152.424 19.3672 152.945C19.5443 153.466 19.6328 154.034 19.6328 154.648V154.906C19.6328 155.521 19.5443 156.089 19.3672 156.609C19.1901 157.125 18.9349 157.573 18.6016 157.953C18.2734 158.333 17.8776 158.63 17.4141 158.844C16.9505 159.052 16.4349 159.156 15.8672 159.156C15.2943 159.156 14.776 159.052 14.3125 158.844C13.849 158.63 13.4505 158.333 13.1172 157.953C12.7839 157.573 12.5286 157.125 12.3516 156.609C12.1745 156.089 12.0859 155.521 12.0859 154.906ZM13.0156 154.648V154.906C13.0156 155.37 13.0781 155.81 13.2031 156.227C13.3281 156.638 13.5104 157.005 13.75 157.328C13.9896 157.646 14.2865 157.896 14.6406 158.078C14.9948 158.26 15.4036 158.352 15.8672 158.352C16.3255 158.352 16.7292 158.26 17.0781 158.078C17.4323 157.896 17.7292 157.646 17.9688 157.328C18.2083 157.005 18.388 156.638 18.5078 156.227C18.6328 155.81 18.6953 155.37 18.6953 154.906V154.648C18.6953 154.19 18.6328 153.755 18.5078 153.344C18.388 152.932 18.2057 152.565 17.9609 152.242C17.7214 151.919 17.4245 151.664 17.0703 151.477C16.7161 151.289 16.3099 151.195 15.8516 151.195C15.3932 151.195 14.987 151.289 14.6328 151.477C14.2839 151.664 13.987 151.919 13.7422 152.242C13.5026 152.565 13.3203 152.932 13.1953 153.344C13.0755 153.755 13.0156 154.19 13.0156 154.648ZM27.9688 158.102L30.6797 150.547H31.6406L28.4766 159H27.7969L27.9688 158.102ZM25.5156 150.547L28.2578 158.125L28.4062 159H27.7188L24.5469 150.547H25.5156ZM36.3359 159.156C35.7839 159.156 35.276 159.055 34.8125 158.852C34.3542 158.648 33.9531 158.362 33.6094 157.992C33.2708 157.622 33.0078 157.185 32.8203 156.68C32.638 156.169 32.5469 155.612 32.5469 155.008V154.672C32.5469 154.021 32.6432 153.432 32.8359 152.906C33.0286 152.38 33.2943 151.93 33.6328 151.555C33.9714 151.18 34.3568 150.893 34.7891 150.695C35.2266 150.492 35.6849 150.391 36.1641 150.391C36.7005 150.391 37.1771 150.487 37.5938 150.68C38.0104 150.867 38.3594 151.135 38.6406 151.484C38.9271 151.828 39.1432 152.237 39.2891 152.711C39.4349 153.18 39.5078 153.698 39.5078 154.266V154.836H33.1094V154.039H38.5781V153.93C38.5677 153.456 38.4714 153.013 38.2891 152.602C38.112 152.185 37.8464 151.846 37.4922 151.586C37.138 151.326 36.6953 151.195 36.1641 151.195C35.7682 151.195 35.4036 151.279 35.0703 151.445C34.7422 151.612 34.4583 151.852 34.2188 152.164C33.9844 152.471 33.8021 152.839 33.6719 153.266C33.5469 153.688 33.4844 154.156 33.4844 154.672V155.008C33.4844 155.477 33.5521 155.914 33.6875 156.32C33.8281 156.721 34.026 157.076 34.2812 157.383C34.5417 157.69 34.849 157.93 35.2031 158.102C35.5573 158.273 35.9479 158.359 36.375 158.359C36.875 158.359 37.3177 158.268 37.7031 158.086C38.0885 157.898 38.4349 157.604 38.7422 157.203L39.3281 157.656C39.1458 157.927 38.9167 158.177 38.6406 158.406C38.3698 158.635 38.0443 158.818 37.6641 158.953C37.2839 159.089 36.8411 159.156 36.3359 159.156ZM42.2812 147V159H41.3516V147H42.2812ZM42.0703 154.25L41.6562 154.016C41.6875 153.516 41.7891 153.047 41.9609 152.609C42.1328 152.172 42.3646 151.786 42.6562 151.453C42.9531 151.12 43.2995 150.859 43.6953 150.672C44.0964 150.484 44.5391 150.391 45.0234 150.391C45.4453 150.391 45.8229 150.448 46.1562 150.562C46.4896 150.677 46.7734 150.859 47.0078 151.109C47.2422 151.359 47.4193 151.68 47.5391 152.07C47.6641 152.461 47.7266 152.938 47.7266 153.5V159H46.7891V153.492C46.7891 152.909 46.7083 152.453 46.5469 152.125C46.3854 151.792 46.1562 151.555 45.8594 151.414C45.5625 151.273 45.2109 151.203 44.8047 151.203C44.3568 151.203 43.9635 151.302 43.625 151.5C43.2917 151.693 43.0104 151.945 42.7812 152.258C42.5573 152.565 42.3854 152.896 42.2656 153.25C42.1458 153.599 42.0807 153.932 42.0703 154.25ZM51.1719 150.547V159H50.2422V150.547H51.1719ZM50.0781 148.102C50.0781 147.924 50.1328 147.776 50.2422 147.656C50.3568 147.531 50.513 147.469 50.7109 147.469C50.9089 147.469 51.0651 147.531 51.1797 147.656C51.2995 147.776 51.3594 147.924 51.3594 148.102C51.3594 148.273 51.2995 148.422 51.1797 148.547C51.0651 148.667 50.9089 148.727 50.7109 148.727C50.513 148.727 50.3568 148.667 50.2422 148.547C50.1328 148.422 50.0781 148.273 50.0781 148.102ZM56.8438 158.352C57.2396 158.352 57.6094 158.279 57.9531 158.133C58.3021 157.982 58.5885 157.76 58.8125 157.469C59.0417 157.172 59.1719 156.81 59.2031 156.383H60.0938C60.0677 156.919 59.9036 157.398 59.6016 157.82C59.3047 158.237 58.9141 158.565 58.4297 158.805C57.9505 159.039 57.4219 159.156 56.8438 159.156C56.2552 159.156 55.7344 159.049 55.2812 158.836C54.8333 158.622 54.4583 158.326 54.1562 157.945C53.8542 157.56 53.625 157.112 53.4688 156.602C53.3177 156.086 53.2422 155.531 53.2422 154.938V154.609C53.2422 154.016 53.3177 153.464 53.4688 152.953C53.625 152.438 53.8542 151.99 54.1562 151.609C54.4583 151.224 54.8333 150.924 55.2812 150.711C55.7292 150.497 56.2474 150.391 56.8359 150.391C57.4401 150.391 57.9818 150.513 58.4609 150.758C58.9453 151.003 59.3307 151.349 59.6172 151.797C59.9089 152.245 60.0677 152.776 60.0938 153.391H59.2031C59.1771 152.938 59.0573 152.547 58.8438 152.219C58.6302 151.891 58.349 151.638 58 151.461C57.651 151.284 57.263 151.195 56.8359 151.195C56.3568 151.195 55.9479 151.289 55.6094 151.477C55.2708 151.659 54.9948 151.911 54.7812 152.234C54.5729 152.552 54.4193 152.917 54.3203 153.328C54.2214 153.734 54.1719 154.161 54.1719 154.609V154.938C54.1719 155.391 54.2188 155.823 54.3125 156.234C54.4115 156.641 54.5651 157.003 54.7734 157.32C54.987 157.638 55.263 157.891 55.6016 158.078C55.9453 158.26 56.3594 158.352 56.8438 158.352ZM63.0156 147V159H62.0859V147H63.0156ZM68.8359 159.156C68.2839 159.156 67.776 159.055 67.3125 158.852C66.8542 158.648 66.4531 158.362 66.1094 157.992C65.7708 157.622 65.5078 157.185 65.3203 156.68C65.138 156.169 65.0469 155.612 65.0469 155.008V154.672C65.0469 154.021 65.1432 153.432 65.3359 152.906C65.5286 152.38 65.7943 151.93 66.1328 151.555C66.4714 151.18 66.8568 150.893 67.2891 150.695C67.7266 150.492 68.1849 150.391 68.6641 150.391C69.2005 150.391 69.6771 150.487 70.0938 150.68C70.5104 150.867 70.8594 151.135 71.1406 151.484C71.4271 151.828 71.6432 152.237 71.7891 152.711C71.9349 153.18 72.0078 153.698 72.0078 154.266V154.836H65.6094V154.039H71.0781V153.93C71.0677 153.456 70.9714 153.013 70.7891 152.602C70.612 152.185 70.3464 151.846 69.9922 151.586C69.638 151.326 69.1953 151.195 68.6641 151.195C68.2682 151.195 67.9036 151.279 67.5703 151.445C67.2422 151.612 66.9583 151.852 66.7188 152.164C66.4844 152.471 66.3021 152.839 66.1719 153.266C66.0469 153.688 65.9844 154.156 65.9844 154.672V155.008C65.9844 155.477 66.0521 155.914 66.1875 156.32C66.3281 156.721 66.526 157.076 66.7812 157.383C67.0417 157.69 67.349 157.93 67.7031 158.102C68.0573 158.273 68.4479 158.359 68.875 158.359C69.375 158.359 69.8177 158.268 70.2031 158.086C70.5885 157.898 70.9349 157.604 71.2422 157.203L71.8281 157.656C71.6458 157.927 71.4167 158.177 71.1406 158.406C70.8698 158.635 70.5443 158.818 70.1641 158.953C69.7839 159.089 69.3411 159.156 68.8359 159.156ZM78.9141 156.844C78.9141 156.615 78.8568 156.388 78.7422 156.164C78.6276 155.94 78.4062 155.734 78.0781 155.547C77.7552 155.359 77.2786 155.201 76.6484 155.07C76.1797 154.966 75.7604 154.849 75.3906 154.719C75.026 154.589 74.7188 154.432 74.4688 154.25C74.2188 154.068 74.0286 153.849 73.8984 153.594C73.7682 153.339 73.7031 153.036 73.7031 152.688C73.7031 152.375 73.7708 152.081 73.9062 151.805C74.0469 151.523 74.2448 151.279 74.5 151.07C74.7604 150.857 75.0729 150.69 75.4375 150.57C75.8073 150.451 76.2214 150.391 76.6797 150.391C77.3307 150.391 77.888 150.503 78.3516 150.727C78.8203 150.945 79.1771 151.245 79.4219 151.625C79.6719 152.005 79.7969 152.435 79.7969 152.914H78.8672C78.8672 152.622 78.7812 152.346 78.6094 152.086C78.4427 151.826 78.1953 151.612 77.8672 151.445C77.5443 151.279 77.1484 151.195 76.6797 151.195C76.1953 151.195 75.8021 151.268 75.5 151.414C75.1979 151.56 74.9766 151.745 74.8359 151.969C74.7005 152.193 74.6328 152.424 74.6328 152.664C74.6328 152.852 74.6615 153.023 74.7188 153.18C74.7812 153.331 74.8906 153.471 75.0469 153.602C75.2083 153.732 75.4375 153.854 75.7344 153.969C76.0312 154.083 76.4167 154.195 76.8906 154.305C77.5729 154.456 78.1302 154.641 78.5625 154.859C79 155.073 79.3229 155.339 79.5312 155.656C79.7396 155.969 79.8438 156.349 79.8438 156.797C79.8438 157.146 79.7708 157.466 79.625 157.758C79.4792 158.044 79.2682 158.292 78.9922 158.5C78.7214 158.708 78.3932 158.87 78.0078 158.984C77.6276 159.099 77.2005 159.156 76.7266 159.156C76.013 159.156 75.4089 159.039 74.9141 158.805C74.4245 158.565 74.0521 158.253 73.7969 157.867C73.5469 157.477 73.4219 157.062 73.4219 156.625H74.3516C74.3828 157.062 74.5208 157.409 74.7656 157.664C75.0104 157.914 75.3099 158.091 75.6641 158.195C76.0234 158.299 76.3776 158.352 76.7266 158.352C77.2057 158.352 77.6068 158.281 77.9297 158.141C78.2526 158 78.4974 157.815 78.6641 157.586C78.8307 157.357 78.9141 157.109 78.9141 156.844ZM88.9844 158.352C89.3802 158.352 89.75 158.279 90.0938 158.133C90.4427 157.982 90.7292 157.76 90.9531 157.469C91.1823 157.172 91.3125 156.81 91.3438 156.383H92.2344C92.2083 156.919 92.0443 157.398 91.7422 157.82C91.4453 158.237 91.0547 158.565 90.5703 158.805C90.0911 159.039 89.5625 159.156 88.9844 159.156C88.3958 159.156 87.875 159.049 87.4219 158.836C86.974 158.622 86.599 158.326 86.2969 157.945C85.9948 157.56 85.7656 157.112 85.6094 156.602C85.4583 156.086 85.3828 155.531 85.3828 154.938V154.609C85.3828 154.016 85.4583 153.464 85.6094 152.953C85.7656 152.438 85.9948 151.99 86.2969 151.609C86.599 151.224 86.974 150.924 87.4219 150.711C87.8698 150.497 88.388 150.391 88.9766 150.391C89.5807 150.391 90.1224 150.513 90.6016 150.758C91.0859 151.003 91.4714 151.349 91.7578 151.797C92.0495 152.245 92.2083 152.776 92.2344 153.391H91.3438C91.3177 152.938 91.1979 152.547 90.9844 152.219C90.7708 151.891 90.4896 151.638 90.1406 151.461C89.7917 151.284 89.4036 151.195 88.9766 151.195C88.4974 151.195 88.0885 151.289 87.75 151.477C87.4115 151.659 87.1354 151.911 86.9219 152.234C86.7135 152.552 86.5599 152.917 86.4609 153.328C86.362 153.734 86.3125 154.161 86.3125 154.609V154.938C86.3125 155.391 86.3594 155.823 86.4531 156.234C86.5521 156.641 86.7057 157.003 86.9141 157.32C87.1276 157.638 87.4036 157.891 87.7422 158.078C88.0859 158.26 88.5 158.352 88.9844 158.352ZM93.6016 154.906V154.648C93.6016 154.034 93.6901 153.466 93.8672 152.945C94.0443 152.424 94.2969 151.974 94.625 151.594C94.9583 151.214 95.3568 150.919 95.8203 150.711C96.2839 150.497 96.7995 150.391 97.3672 150.391C97.9401 150.391 98.4583 150.497 98.9219 150.711C99.3854 150.919 99.7839 151.214 100.117 151.594C100.451 151.974 100.706 152.424 100.883 152.945C101.06 153.466 101.148 154.034 101.148 154.648V154.906C101.148 155.521 101.06 156.089 100.883 156.609C100.706 157.125 100.451 157.573 100.117 157.953C99.7891 158.333 99.3932 158.63 98.9297 158.844C98.4661 159.052 97.9505 159.156 97.3828 159.156C96.8099 159.156 96.2917 159.052 95.8281 158.844C95.3646 158.63 94.9661 158.333 94.6328 157.953C94.2995 157.573 94.0443 157.125 93.8672 156.609C93.6901 156.089 93.6016 155.521 93.6016 154.906ZM94.5312 154.648V154.906C94.5312 155.37 94.5938 155.81 94.7188 156.227C94.8438 156.638 95.026 157.005 95.2656 157.328C95.5052 157.646 95.8021 157.896 96.1562 158.078C96.5104 158.26 96.9193 158.352 97.3828 158.352C97.8411 158.352 98.2448 158.26 98.5938 158.078C98.9479 157.896 99.2448 157.646 99.4844 157.328C99.724 157.005 99.9036 156.638 100.023 156.227C100.148 155.81 100.211 155.37 100.211 154.906V154.648C100.211 154.19 100.148 153.755 100.023 153.344C99.9036 152.932 99.7214 152.565 99.4766 152.242C99.237 151.919 98.9401 151.664 98.5859 151.477C98.2318 151.289 97.8255 151.195 97.3672 151.195C96.9089 151.195 96.5026 151.289 96.1484 151.477C95.7995 151.664 95.5026 151.919 95.2578 152.242C95.0182 152.565 94.8359 152.932 94.7109 153.344C94.5911 153.755 94.5312 154.19 94.5312 154.648ZM104.016 152.352V159H103.086V150.547H103.977L104.016 152.352ZM103.805 154.25L103.391 154.016C103.422 153.516 103.523 153.047 103.695 152.609C103.867 152.172 104.099 151.786 104.391 151.453C104.688 151.12 105.034 150.859 105.43 150.672C105.831 150.484 106.273 150.391 106.758 150.391C107.18 150.391 107.557 150.448 107.891 150.562C108.224 150.677 108.508 150.859 108.742 151.109C108.977 151.359 109.154 151.68 109.273 152.07C109.398 152.461 109.461 152.938 109.461 153.5V159H108.523V153.492C108.523 152.909 108.443 152.453 108.281 152.125C108.12 151.792 107.891 151.555 107.594 151.414C107.297 151.273 106.945 151.203 106.539 151.203C106.091 151.203 105.698 151.302 105.359 151.5C105.026 151.693 104.745 151.945 104.516 152.258C104.292 152.565 104.12 152.896 104 153.25C103.88 153.599 103.815 153.932 103.805 154.25ZM112.812 152.352V159H111.883V150.547H112.773L112.812 152.352ZM112.602 154.25L112.188 154.016C112.219 153.516 112.32 153.047 112.492 152.609C112.664 152.172 112.896 151.786 113.188 151.453C113.484 151.12 113.831 150.859 114.227 150.672C114.628 150.484 115.07 150.391 115.555 150.391C115.977 150.391 116.354 150.448 116.688 150.562C117.021 150.677 117.305 150.859 117.539 151.109C117.773 151.359 117.951 151.68 118.07 152.07C118.195 152.461 118.258 152.938 118.258 153.5V159H117.32V153.492C117.32 152.909 117.24 152.453 117.078 152.125C116.917 151.792 116.688 151.555 116.391 151.414C116.094 151.273 115.742 151.203 115.336 151.203C114.888 151.203 114.495 151.302 114.156 151.5C113.823 151.693 113.542 151.945 113.312 152.258C113.089 152.565 112.917 152.896 112.797 153.25C112.677 153.599 112.612 153.932 112.602 154.25ZM123.945 159.156C123.393 159.156 122.885 159.055 122.422 158.852C121.964 158.648 121.562 158.362 121.219 157.992C120.88 157.622 120.617 157.185 120.43 156.68C120.247 156.169 120.156 155.612 120.156 155.008V154.672C120.156 154.021 120.253 153.432 120.445 152.906C120.638 152.38 120.904 151.93 121.242 151.555C121.581 151.18 121.966 150.893 122.398 150.695C122.836 150.492 123.294 150.391 123.773 150.391C124.31 150.391 124.786 150.487 125.203 150.68C125.62 150.867 125.969 151.135 126.25 151.484C126.536 151.828 126.753 152.237 126.898 152.711C127.044 153.18 127.117 153.698 127.117 154.266V154.836H120.719V154.039H126.188V153.93C126.177 153.456 126.081 153.013 125.898 152.602C125.721 152.185 125.456 151.846 125.102 151.586C124.747 151.326 124.305 151.195 123.773 151.195C123.378 151.195 123.013 151.279 122.68 151.445C122.352 151.612 122.068 151.852 121.828 152.164C121.594 152.471 121.411 152.839 121.281 153.266C121.156 153.688 121.094 154.156 121.094 154.672V155.008C121.094 155.477 121.161 155.914 121.297 156.32C121.438 156.721 121.635 157.076 121.891 157.383C122.151 157.69 122.458 157.93 122.812 158.102C123.167 158.273 123.557 158.359 123.984 158.359C124.484 158.359 124.927 158.268 125.312 158.086C125.698 157.898 126.044 157.604 126.352 157.203L126.938 157.656C126.755 157.927 126.526 158.177 126.25 158.406C125.979 158.635 125.654 158.818 125.273 158.953C124.893 159.089 124.451 159.156 123.945 159.156ZM132.078 158.352C132.474 158.352 132.844 158.279 133.188 158.133C133.536 157.982 133.823 157.76 134.047 157.469C134.276 157.172 134.406 156.81 134.438 156.383H135.328C135.302 156.919 135.138 157.398 134.836 157.82C134.539 158.237 134.148 158.565 133.664 158.805C133.185 159.039 132.656 159.156 132.078 159.156C131.49 159.156 130.969 159.049 130.516 158.836C130.068 158.622 129.693 158.326 129.391 157.945C129.089 157.56 128.859 157.112 128.703 156.602C128.552 156.086 128.477 155.531 128.477 154.938V154.609C128.477 154.016 128.552 153.464 128.703 152.953C128.859 152.438 129.089 151.99 129.391 151.609C129.693 151.224 130.068 150.924 130.516 150.711C130.964 150.497 131.482 150.391 132.07 150.391C132.674 150.391 133.216 150.513 133.695 150.758C134.18 151.003 134.565 151.349 134.852 151.797C135.143 152.245 135.302 152.776 135.328 153.391H134.438C134.411 152.938 134.292 152.547 134.078 152.219C133.865 151.891 133.583 151.638 133.234 151.461C132.885 151.284 132.497 151.195 132.07 151.195C131.591 151.195 131.182 151.289 130.844 151.477C130.505 151.659 130.229 151.911 130.016 152.234C129.807 152.552 129.654 152.917 129.555 153.328C129.456 153.734 129.406 154.161 129.406 154.609V154.938C129.406 155.391 129.453 155.823 129.547 156.234C129.646 156.641 129.799 157.003 130.008 157.32C130.221 157.638 130.497 157.891 130.836 158.078C131.18 158.26 131.594 158.352 132.078 158.352ZM140.406 150.547V151.312H136.172V150.547H140.406ZM137.727 148.375H138.656V156.945C138.656 157.336 138.708 157.63 138.812 157.828C138.917 158.026 139.052 158.159 139.219 158.227C139.385 158.294 139.565 158.328 139.758 158.328C139.898 158.328 140.034 158.32 140.164 158.305C140.294 158.284 140.411 158.263 140.516 158.242L140.555 159.031C140.44 159.068 140.292 159.096 140.109 159.117C139.927 159.143 139.745 159.156 139.562 159.156C139.203 159.156 138.885 159.091 138.609 158.961C138.333 158.826 138.117 158.596 137.961 158.273C137.805 157.945 137.727 157.5 137.727 156.938V148.375ZM145.633 159.156C145.081 159.156 144.573 159.055 144.109 158.852C143.651 158.648 143.25 158.362 142.906 157.992C142.568 157.622 142.305 157.185 142.117 156.68C141.935 156.169 141.844 155.612 141.844 155.008V154.672C141.844 154.021 141.94 153.432 142.133 152.906C142.326 152.38 142.591 151.93 142.93 151.555C143.268 151.18 143.654 150.893 144.086 150.695C144.523 150.492 144.982 150.391 145.461 150.391C145.997 150.391 146.474 150.487 146.891 150.68C147.307 150.867 147.656 151.135 147.938 151.484C148.224 151.828 148.44 152.237 148.586 152.711C148.732 153.18 148.805 153.698 148.805 154.266V154.836H142.406V154.039H147.875V153.93C147.865 153.456 147.768 153.013 147.586 152.602C147.409 152.185 147.143 151.846 146.789 151.586C146.435 151.326 145.992 151.195 145.461 151.195C145.065 151.195 144.701 151.279 144.367 151.445C144.039 151.612 143.755 151.852 143.516 152.164C143.281 152.471 143.099 152.839 142.969 153.266C142.844 153.688 142.781 154.156 142.781 154.672V155.008C142.781 155.477 142.849 155.914 142.984 156.32C143.125 156.721 143.323 157.076 143.578 157.383C143.839 157.69 144.146 157.93 144.5 158.102C144.854 158.273 145.245 158.359 145.672 158.359C146.172 158.359 146.615 158.268 147 158.086C147.385 157.898 147.732 157.604 148.039 157.203L148.625 157.656C148.443 157.927 148.214 158.177 147.938 158.406C147.667 158.635 147.341 158.818 146.961 158.953C146.581 159.089 146.138 159.156 145.633 159.156ZM156.141 157.359V147H157.078V159H156.203L156.141 157.359ZM150.273 154.859V154.695C150.273 154.039 150.349 153.448 150.5 152.922C150.651 152.391 150.867 151.938 151.148 151.562C151.435 151.182 151.779 150.893 152.18 150.695C152.581 150.492 153.034 150.391 153.539 150.391C154.034 150.391 154.471 150.471 154.852 150.633C155.232 150.794 155.557 151.026 155.828 151.328C156.104 151.63 156.326 151.99 156.492 152.406C156.664 152.823 156.789 153.286 156.867 153.797V155.883C156.805 156.362 156.69 156.802 156.523 157.203C156.357 157.599 156.135 157.945 155.859 158.242C155.583 158.534 155.25 158.76 154.859 158.922C154.474 159.078 154.029 159.156 153.523 159.156C153.023 159.156 152.573 159.052 152.172 158.844C151.771 158.635 151.43 158.341 151.148 157.961C150.867 157.576 150.651 157.12 150.5 156.594C150.349 156.068 150.273 155.49 150.273 154.859ZM151.211 154.695V154.859C151.211 155.354 151.26 155.812 151.359 156.234C151.458 156.656 151.609 157.023 151.812 157.336C152.016 157.648 152.273 157.893 152.586 158.07C152.898 158.247 153.268 158.336 153.695 158.336C154.232 158.336 154.682 158.234 155.047 158.031C155.411 157.823 155.703 157.549 155.922 157.211C156.141 156.867 156.299 156.492 156.398 156.086V153.656C156.336 153.38 156.245 153.099 156.125 152.812C156.005 152.526 155.841 152.263 155.633 152.023C155.43 151.779 155.169 151.583 154.852 151.438C154.539 151.286 154.159 151.211 153.711 151.211C153.279 151.211 152.906 151.299 152.594 151.477C152.281 151.654 152.021 151.901 151.812 152.219C151.609 152.531 151.458 152.898 151.359 153.32C151.26 153.742 151.211 154.201 151.211 154.695Z" fill="#C6D0DA"/>
</svg>
