<svg width="829" height="115" viewBox="0 0 829 115" fill="none" xmlns="http://www.w3.org/2000/svg">
<g clip-path="url(#clip0_2_53)">
<path d="M20.85 24.83H19.86C6.87 24.83 0 31.35 0 43.7V95.82C0 108.51 6.5 114.69 19.86 114.69H20.85C34.03 114.69 40.71 108.34 40.71 95.82V70.01H19.36V75.72H34.75V93.58C34.75 104.65 30.72 108.96 20.36 108.96C10 108.96 5.97 104.65 5.97 93.58V45.93C5.97 34.86 10.01 30.55 20.36 30.55C30.71 30.55 34.75 34.86 34.75 45.93V55.36H40.71V43.69C40.71 31.35 33.84 24.83 20.85 24.83Z" fill="#1940CB"/>
<path d="M80.91 71.99H105.23V66.28H80.91V31.54H109.08V25.82H74.95V113.68H109.45V107.97H80.91V71.99Z" fill="#1940CB"/>
<path d="M176.82 98.61L147.13 26.13L147.01 25.82H140.96V113.68H146.92V40.88L176.86 113.37L176.98 113.68H182.78V25.82H176.82V98.61Z" fill="#1940CB"/>
<path d="M223.73 71.99H248.05V66.28H223.73V31.54H251.9V25.82H217.77V113.68H252.27V107.97H223.73V71.99Z" fill="#1940CB"/>
<path d="M324.11 56.73V44.69C324.11 32.17 317.43 25.83 304.25 25.83H283.77V113.69H289.73V75.6H305.64L320.65 113.38L320.78 113.7H327.32L311.87 74.71C319.99 72.58 324.1 66.54 324.1 56.74L324.11 56.73ZM303.76 69.88H289.74V31.54H303.76C314.12 31.54 318.15 35.85 318.15 46.92V54.49C318.15 65.56 314.11 69.87 303.76 69.87V69.88Z" fill="#1940CB"/>
<path d="M379.35 25.82H373.34L353.01 113.68H359L364.21 90.6H388.48L393.69 113.68H399.93L379.44 26.21L379.35 25.82ZM365.56 84.88L376.35 37.62L387.14 84.88H365.56Z" fill="#1940CB"/>
<path d="M417.17 31.54H433.92V113.68H439.88V31.54H456.63V25.82H417.17V31.54Z" fill="#1940CB"/>
<path d="M491.87 25.82H485.91V113.68H491.87V25.82Z" fill="#1940CB"/>
<path d="M547.71 24.83H546.72C533.54 24.83 526.86 31.18 526.86 43.69V95.81C526.86 108.33 533.54 114.68 546.72 114.68H547.71C560.89 114.68 567.57 108.33 567.57 95.81V43.69C567.57 31.17 560.89 24.83 547.71 24.83ZM561.6 93.58C561.6 104.65 557.56 108.96 547.21 108.96C536.86 108.96 532.82 104.65 532.82 93.58V45.93C532.82 34.86 536.85 30.55 547.21 30.55C557.57 30.55 561.6 34.86 561.6 45.93V93.58Z" fill="#1940CB"/>
<path d="M637.91 98.61L608.23 26.13L608.1 25.82H602.05V113.68H608.02V40.88L637.95 113.37L638.08 113.68H643.88V25.82H637.91V98.61Z" fill="#1940CB"/>
<path d="M699.86 25.82H693.85L673.52 113.68H679.51L684.72 90.6H708.99L714.2 113.68H720.44L699.95 26.21L699.86 25.82ZM686.07 84.88L696.86 37.62L707.65 84.88H686.07Z" fill="#1940CB"/>
<path d="M756.05 25.82H750.08V113.68H782.72V107.97H756.05V25.82Z" fill="#1940CB"/>
<path d="M808.51 19.63V0H801.86V19.63H782.23V26.28H801.86V45.91H808.51V26.28H828.14V19.63H808.51ZM802.44 20.21H802.29V20.07H802.44V20.21Z" fill="#1940CB"/>
</g>
<defs>
<clipPath id="clip0_2_53">
<rect width="828.14" height="114.68" fill="white"/>
</clipPath>
</defs>
</svg>
