<svg width="37" height="37" viewBox="0 0 37 37" fill="none" xmlns="http://www.w3.org/2000/svg">
<path d="M18.0734 0H18.8978C21.529 0.0444687 24.1588 0.271601 26.7524 0.721761C30.2579 1.31901 33.6936 2.30143 37 3.60675C36.7127 4.3463 36.3425 5.05027 35.9629 5.74604C30.4761 3.34883 24.4735 2.18239 18.4908 2.24396C12.5142 2.18649 6.51979 3.35499 1.03715 5.74536C0.654716 5.05096 0.300335 4.34083 0 3.60675C5.74262 1.32996 11.8943 0.0841484 18.0734 0Z" fill="#DB3232"/>
<path d="M12.4656 3.7648C13.2017 3.67654 13.9419 3.61634 14.6829 3.58487C15.954 5.13443 17.2258 6.68331 18.4976 8.23287C19.7701 6.68468 21.0412 5.13512 22.3123 3.58555C24.6158 3.69023 26.9029 4.05624 29.1434 4.59465C31.2793 5.11596 33.3761 5.81378 35.3711 6.74283C34.5501 7.94827 33.3884 8.88212 32.142 9.61893C31.5789 9.94458 30.9974 10.2422 30.3919 10.483C30.3372 9.99315 30.2182 9.49305 29.9192 9.09078C29.6018 8.65225 29.1099 8.37723 28.605 8.20756C27.8134 7.94691 26.9788 7.8607 26.151 7.80118C25.3273 7.74851 24.5016 7.73209 23.6765 7.73551C21.9518 17.4406 20.2264 27.1464 18.5017 36.8522C16.7626 27.1451 15.0236 17.4379 13.2845 7.73072C11.8752 7.73824 10.4522 7.74645 9.06476 8.02353C8.37857 8.16993 7.66297 8.41006 7.18613 8.95258C6.81054 9.37127 6.6614 9.93637 6.60256 10.483C5.49632 10.026 4.44207 9.43421 3.49591 8.69945C2.78373 8.13983 2.12901 7.49606 1.62549 6.74009C5.04616 5.16659 8.73432 4.21838 12.4656 3.7648Z" fill="#DB3232"/>
</svg>
